/* XPM */
static char *_31e92942b7d41eca582395a17942160LvtspxsozOjLGDgy[] = {
/* columns rows colors chars-per-pixel */
"64 64 2 1 ",
"  c None",
". c #46C821",
/* pixels */
"  ............................................................  ",
" .............................................................. ",
"................................................................",
"...  ......................................................  ...",
"...  ......................................................  ...",
"................................................................",
"................................................................",
"..............................     .............................",
".........................              .........................",
"......................                    ......................",
"....................                        ....................",
"..................                            ..................",
".................                              .................",
"................          ..    ..              ................",
"...............           ..    ..               ...............",
"..............            ..    ..                ..............",
".............             ..    ..                 .............",
"............              ..    ..                  ............",
"............              ..    ..                   ...........",
"...........       ....................               ...........",
"..........        ......................              ..........",
"..........         ......................             ..........",
".........              ...................             .........",
".........              .....       .......             .........",
".........              .....        .......            .........",
"........               .....         ......             ........",
"........               .....         .....              ........",
"........               .....        ......              ........",
"........               .....       ......               ........",
"........               .................                 .......",
"........               ..............                    .......",
"........               ..............                    .......",
"........               .................                 .......",
"........               ...................               .......",
"........               .....         ......             ........",
"........               .....         .......            ........",
"........               .....          ......            ........",
"........               .....          ......            ........",
"........               .....          ......            ........",
".........              .....         .......           .........",
".........              .....        ........           .........",
".........              ....................            .........",
"..........         .......................            ..........",
"..........        .......................             ..........",
"...........       .....................        .     ...........",
"............              ..    ..             .     ...........",
"............              ..    ..                  ............",
".............             ..    ..                ..............",
"..............            ..    ..                 .............",
"...............           ..    ..                   ...........",
"................          ..    ..               .    ..........",
".................                                ..     ........",
"...................                          ..   .     ........",
"....................                        ....  ..     .......",
"......................                    .......  ..    .......",
".........................              ..........  ...   .......",
"................................................... ... ........",
"................................................................",
"................................................................",
"...  ......................................................  ...",
"...  ......................................................  ...",
"................................................................",
" .............................................................. ",
"  ............................................................  "
};
