/* XPM */
static char *_1a9aa2f32ca4f8797600517d390c09194fezdSk7R4905u5[] = {
/* columns rows colors chars-per-pixel */
"128 128 2 1 ",
"  c None",
". c #46C821",
/* pixels */
"     ......................................................................................................................     ",
"   ..........................................................................................................................   ",
"  ............................................................................................................................  ",
" .............................................................................................................................. ",
" .............................................................................................................................. ",
"................................................................................................................................",
".......  .............................................................................................................   .......",
"......    ...........................................................................................................     ......",
"......     ..........................................................................................................     ......",
"......    ...........................................................................................................     ......",
".......  .............................................................................................................   .......",
"................................................................................................................................",
"................................................................................................................................",
"................................................................................................................................",
"................................................................................................................................",
"........................................................                 .......................................................",
"...................................................                          ...................................................",
"................................................                                ................................................",
".............................................                                      .............................................",
"...........................................                                          ...........................................",
".........................................                                              .........................................",
".......................................                                                  .......................................",
"......................................                                                     .....................................",
"....................................                                                        ....................................",
"...................................                                                          ...................................",
"..................................                                                             .................................",
"................................                                                                ................................",
"...............................                    .....       .....                             ...............................",
"..............................                     .....       .....                              ..............................",
".............................                      .....       .....                               .............................",
"............................                       .....       .....                                ............................",
"...........................                        .....       .....                                 ...........................",
"..........................                         .....       .....                                  ..........................",
"..........................                         .....       .....                                   .........................",
".........................                          .....       .....                                   .........................",
"........................                           .....       .....                                    ........................",
".......................                            .....       .....                                     .......................",
".......................                            ......      ......                                     ......................",
"......................               .....................................                                ......................",
"......................               ........................................                              .....................",
".....................                ..........................................                            .....................",
"....................                 ...........................................                            ....................",
"....................                 .............................................                          ....................",
"...................                          .....................................                           ...................",
"...................                           .....................................                          ...................",
"...................                           ...........          .................                          ..................",
"..................                            ..........              ..............                          ..................",
"..................                            ..........               ..............                         ..................",
"..................                            ..........                .............                          .................",
".................                             ..........                 ............                          .................",
".................                             ..........                 ............                          .................",
".................                             ..........                 ............                           ................",
"................                              ..........                 ............                           ................",
"................                              ..........                 ............                           ................",
"................                              ..........                 ...........                            ................",
"................                              ..........                ...........                              ...............",
"................                              ..........                ...........                              ...............",
"...............                               ..........              ............                               ...............",
"...............                               ...........           .............                                ...............",
"...............                               .................................                                  ...............",
"...............                               ...............................                                    ...............",
"...............                               ............................                                       ...............",
"...............                               ............................                                       ...............",
"...............                               ...............................                                    ...............",
"...............                               ..................................                                 ...............",
"...............                               ...................................                                ...............",
"...............                               .....................................                              ...............",
"...............                               ...........             ..............                             ...............",
"...............                               ..........                .............                            ...............",
"...............                               ..........                  ............                           ...............",
"................                              ..........                  .............                          ...............",
"................                              ..........                   ............                          ...............",
"................                              ..........                   .............                        ................",
"................                              ..........                    ............                        ................",
"................                              ..........                    ............                        ................",
"................                              ..........                    .............                       ................",
".................                             ..........                    .............                       ................",
".................                             ..........                   ..............                      .................",
".................                             ..........                   .............                       .................",
"..................                            ..........                  ..............                       .................",
"..................                            ..........                 ...............                      ..................",
"..................                            ..........                ...............                       ..................",
"...................                           .........................................                       ..................",
"...................                           ........................................                       ...................",
"....................                         ........................................                        ...................",
"....................                 ...............................................                        ....................",
".....................                ..............................................                         ....................",
".....................                ............................................                          .....................",
"......................               ..........................................              .             .....................",
"......................               .......................................                 ..           ......................",
".......................                            ......      ......                          .         .......................",
"........................                           .....       .....                         .  .        .......................",
"........................                           .....       .....                        ..   .      ........................",
".........................                          .....       .....                        .     .    .........................",
"..........................                         .....       .....                        .      .  ..........................",
"...........................                        .....       .....                        .       ............................",
"............................                       .....       .....                        ..       ...........................",
"............................                       .....       .....                         .         .........................",
".............................                      .....       .....                         .          ........................",
"..............................                     .....       .....                         .            ......................",
"................................                   .....       .....                         .     .        ....................",
".................................                                                            .     .          ..................",
"..................................                                                                 ..          .................",
"...................................                                                          .     ..           ................",
".....................................                                                       ...    ...          ................",
"......................................                                                    .....     ...          ...............",
"........................................                                                .......     ...          ...............",
"..........................................                                             .........     ...          ..............",
"............................................                                         ............    ....         ..............",
"..............................................                                    ................    ....        ..............",
".................................................                              ...................    .....      ...............",
"....................................................                        .......................    .....     ...............",
"..........................................................             ..............................   .....    ...............",
"......................................................................................................   .....   ...............",
"........................................................................................................ ....... ...............",
"................................................................................................................................",
"................................................................................................................................",
"................................................................................................................................",
"......    ............................................................................................................   .......",
"......    ...........................................................................................................     ......",
"......     ..........................................................................................................     ......",
"......    ............................................................................................................   .......",
".......  .............................................................................................................. ........",
" .............................................................................................................................. ",
" .............................................................................................................................. ",
"  ............................................................................................................................  ",
"   ..........................................................................................................................   ",
"     ......................................................................................................................     "
};
