/* XPM */
static char *_dd9d2551b024aa3ae1e7d6f801ae551XOwcEc8SwLR25V7q[] = {
/* columns rows colors chars-per-pixel */
"32 32 2 1 ",
"  c None",
". c #46C821",
/* pixels */
" .............................. ",
"................................",
".. .......................... ..",
"................................",
"............        ............",
"..........            ..........",
"........                ........",
".......      .  .        .......",
"......       .  .         ......",
"......   .........        ......",
".....    ...........       .....",
".....      ...   ....      .....",
"....       ...    ...       ....",
"....       ...    ...       ....",
"....       ...   ...        ....",
"....       ........         ....",
"....       .........        ....",
"....       ...    ....      ....",
"....       ...     ...      ....",
"....       ...     ...      ....",
".....      ...    ....     .....",
".....    ............      .....",
"......   ..........       ......",
"......       .  .        .......",
".......      .  .         ......",
"........                    ....",
"..........            .. .  ....",
"............        ....  . ....",
"................................",
".. .......................... ..",
".. .......................... ..",
" .............................. "
};
