<svg id="图层_1" data-name="图层 1" xmlns="http://www.w3.org/2000/svg" xmlns:xlink="http://www.w3.org/1999/xlink" viewBox="0 0 425 425"><defs><style>.cls-1,.cls-4{fill:none;}.cls-2{clip-path:url(#clip-path);}.cls-3{fill:#ff4e15;}.cls-4{stroke:#ff4e15;stroke-miterlimit:10;stroke-width:2px;}</style><clipPath id="clip-path" transform="translate(-188 -178)"><rect class="cls-1" width="800" height="800"/></clipPath></defs><title>btchd2</title><g class="cls-2"><path class="cls-3" d="M588.83,178H212.17A24.24,24.24,0,0,0,188,202.17V578.83A24.24,24.24,0,0,0,212.17,603H588.83A24.24,24.24,0,0,0,613,578.83V202.17A24.24,24.24,0,0,0,588.83,178M215,585a8,8,0,1,1,8-8,8,8,0,0,1-8,8m0-371a8,8,0,1,1,8-8,8,8,0,0,1-8,8M542,560s-23,1-40-32c0,0-1-3.22-2.15-8.4a163,163,0,1,1,24.27-22.78c6,4.85,12.54,9.07,18.88,11.18,0,0,29,12,22,37,0,0-8,14,8,19,0,0,7,2,10,3,0,0-37,1-65-56,0,0-4,22,24,49m43,25a8,8,0,1,1,8-8,8,8,0,0,1-8,8m0-371a8,8,0,1,1,8-8,8,8,0,0,1-8,8" transform="translate(-188 -178)"/><path class="cls-4" d="M499.14,471.45s23,30,44,37c0,0,29,12,22,37,0,0-8,14,8,19,0,0,7,2,10,3,0,0-37,1-65-56,0,0-4,22,24,49,0,0-23,1-40-32C502.14,528.45,492.14,496.45,499.14,471.45Z" transform="translate(-188 -178)"/><path class="cls-3" d="M463.76,399.18a69.63,69.63,0,0,0-30.56-13,1.86,1.86,0,0,1-.24-3.62c7.2-2.19,16.2-5.44,21.13-9.12,10.59-7.78,16.9-18.37,16.82-29,.09-10.59-6.23-21.19-16.82-29-10.41-7.78-25.1-12.75-37.68-12.09h-1.19V268.75a1.75,1.75,0,0,0-1.75-1.74H400.12a1.74,1.74,0,0,0-1.75,1.74V303.4h-23V268.75a1.74,1.74,0,0,0-1.74-1.74H360.34a1.75,1.75,0,0,0-1.75,1.74V303.4H312.05a1.75,1.75,0,0,0-1.75,1.75v15a1.75,1.75,0,0,0,1.75,1.75h27.46V459.12H312.05a1.75,1.75,0,0,0-1.75,1.75v15a1.75,1.75,0,0,0,1.75,1.75h46.54v34.65a1.75,1.75,0,0,0,1.75,1.75h13.35a1.75,1.75,0,0,0,1.74-1.75V477.61h23v34.65a1.75,1.75,0,0,0,1.75,1.75h13.35a1.75,1.75,0,0,0,1.75-1.75V477.61h6.93c14.17.63,30.25-5,41.61-13.69,11.55-8.71,18.38-20.54,18.29-32.37.09-11.83-6.74-23.66-18.29-32.37M375,328.84h32.49C422,328.77,432.31,339.91,432,351c.26,11.14-10.05,22.28-24.57,22.2H375Zm39.34,122.35H375q0-24.81,0-49.62h39.34c33.75,0,33.75,49.63,0,49.62" transform="translate(-188 -178)"/></g></svg>
